<svg xmlns="http://www.w3.org/2000/svg" viewBox="0 0 980 250"><defs><style>.flash_black_16-3{fill-opacity:0.16;}.a{fill:none;}.flash_black_54-5{fill-opacity:0.54;}</style></defs><title>gag__cover</title><rect class="flash_black_16-3" width="980" height="250"/><path class="a" d="M390,25H590V225H390Z"/><path class="flash_black_54-5" d="M474.047,128.989l-31.909,39.886h95.727l-23.932-31.909-16.194,21.618Zm55.841-35.9a11.966,11.966,0,1,0-11.966,11.966A11.95,11.95,0,0,0,529.888,93.091Zm19.943-36.3a8.386,8.386,0,0,1,8.376,8.376V184.829a8.386,8.386,0,0,1-8.376,8.376H430.172a8.386,8.386,0,0,1-8.376-8.376V65.171a8.386,8.386,0,0,1,8.376-8.376H549.831m0-9.573H430.172a17.949,17.949,0,0,0-17.949,17.949V184.829a17.949,17.949,0,0,0,17.949,17.949H549.831a17.949,17.949,0,0,0,17.949-17.949V65.171a17.949,17.949,0,0,0-17.949-17.949Z"/></svg>