<svg xmlns="http://www.w3.org/2000/svg" viewBox="0 0 400 246.756"><title>logo-short</title><g id="Слой_2" data-name="Слой 2"><g id="general-logo-short"><path id="logo-short" d="M390.331,78.482a125.305,125.305,0,0,0-27.457-39.754,136.086,136.086,0,0,0-42.924-28.1Q294.807.007,264.264,0q-29.783,0-54.913,10.112a140.73,140.73,0,0,0-43.5,27.074A122.8,122.8,0,0,0,137.23,76.427a109.477,109.477,0,0,0-10.249,46.267,110.825,110.825,0,0,0,4.65,31.7h66.023c-.512-1.237-1-2.489-1.452-3.768a81.519,81.519,0,0,1-4.64-27.247,83.681,83.681,0,0,1,4.446-26.9A67.712,67.712,0,0,1,209.544,73a69.093,69.093,0,0,1,22.43-16.62q13.339-6.338,31.516-6.341,17.4,0,30.743,6a68.37,68.37,0,0,1,22.623,16.109,66.959,66.959,0,0,1,13.921,23.3,81.577,81.577,0,0,1,4.64,27.248,83.767,83.767,0,0,1-4.446,26.9,71.339,71.339,0,0,1-13.342,23.648,67.21,67.21,0,0,1-22.43,16.964q-13.54,6.514-31.709,6.513h-200V16.252H0v230.5H263.1q29.775,0,54.913-10.281a140.991,140.991,0,0,0,43.311-27.245,124.314,124.314,0,0,0,28.423-39.241A109.564,109.564,0,0,0,400,123.723,112.77,112.77,0,0,0,390.331,78.482Z"/></g></g></svg>