<svg xmlns="http://www.w3.org/2000/svg" viewBox="0 0 40 40"><defs><style>.flash_black_16-3{fill-opacity:0.16;}.a{fill:none;}.flash_black_54{fill-opacity:0.54;}</style></defs><title>gag__link</title><rect class="flash_black_16-3" width="40" height="40"/><rect class="a" x="10" y="10" width="20" height="20"/><path class="flash_black_54" d="M20,12a8,8,0,1,0,8,8A8,8,0,0,0,20,12Zm-.8,14.344A6.391,6.391,0,0,1,13.6,20a6.494,6.494,0,0,1,.168-1.432L17.6,22.4v.8a1.6,1.6,0,0,0,1.6,1.6Zm5.52-2.032A1.587,1.587,0,0,0,23.2,23.2h-.8V20.8a.8.8,0,0,0-.8-.8H16.8V18.4h1.6a.8.8,0,0,0,.8-.8V16h1.6a1.6,1.6,0,0,0,1.6-1.6v-.328a6.386,6.386,0,0,1,2.32,10.24Z"/></svg>