<svg xmlns="http://www.w3.org/2000/svg" viewBox="0 0 230 130"><defs><style>.flash_black_16-3{fill-opacity:0.16;}.a{fill:none;}.flash_black_54{fill-opacity:0.54;}</style></defs><title>gag__album</title><rect class="flash_black_16-3" width="230" height="130"/><rect class="a" x="70" y="20" width="90" height="90"/><path class="flash_black_54" d="M125.133,68.167A10.133,10.133,0,1,1,115,58.033,10.133,10.133,0,0,1,125.133,68.167Zm21.533-19v38a6.352,6.352,0,0,1-6.333,6.333H89.667a6.352,6.352,0,0,1-6.333-6.333v-38a6.352,6.352,0,0,1,6.333-6.333H99.7l5.8-6.333h19l5.8,6.333h10.038A6.352,6.352,0,0,1,146.667,49.167Zm-15.833,19A15.833,15.833,0,1,0,115,84,15.839,15.839,0,0,0,130.833,68.167Z"/></svg>