<?xml version="1.0" encoding="utf-8"?>
<!-- Generator: Adobe Illustrator 21.0.2, SVG Export Plug-In . SVG Version: 6.00 Build 0)  -->
<svg version="1.2" baseProfile="tiny" id="Layer_1" xmlns="http://www.w3.org/2000/svg" xmlns:xlink="http://www.w3.org/1999/xlink"
	 x="0px" y="0px" viewBox="0 0 300 300" xml:space="preserve">
<g>
	<path fill="#FFCF01" d="M39.7252,148.8531c0-16.2848,1.365-26.6184,35.0885-51.7924C102.7329,76.2196,192.2236,5,192.2236,5
		v118.8884h68.0548V295H60.9817c-11.6909,0-21.2601-9.5687-21.2601-21.2607L39.7252,148.8531z"/>
	<g>
		<g>
			<polygon fill="#D3AB07" points="192.2236,123.8884 192.2236,192.7768 67.1674,277.9713 225.2789,226.5267 225.2789,123.8884 			
				"/>
			<path d="M135.076,120.3255c7.3133-8.7135,17.9936-11.7902,23.8579-6.8688c5.8643,4.9213,4.6922,15.9768-2.6211,24.6903
				c-7.3092,8.7134-17.993,11.7861-23.8574,6.8648C126.5907,140.0903,127.7658,129.0384,135.076,120.3255"/>
		</g>
	</g>
</g>
<g>
</g>
<g>
</g>
<g>
</g>
<g>
</g>
<g>
</g>
<g>
</g>
</svg>
