<svg xmlns="http://www.w3.org/2000/svg" viewBox="0 0 70 70"><title>code</title><path d="M0,16.8V53.2H5.6V50.4H2.8V19.6H5.6V16.8Zm64.4,0v2.8h2.8V50.4H64.4v2.8H70V16.8ZM8.84,27.74l5.42,7.39L8.4,43.53h3.06L16,37l4.46,6.56H23.8L17.63,35,23,27.74H19.86L16,33.34l-3.81-5.6Zm18.9,0L33,35.13l-5.86,8.4h3.19L34.87,37l4.46,6.56H42.7L36.53,35,42,27.74H38.76l-3.89,5.6-3.81-5.6Zm19,0,5.16,7.39-5.86,8.4h3.19L53.77,37l4.46,6.56H61.6L55.43,35l5.47-7.26H57.84l-3.94,5.6-3.76-5.6Z"/><rect width="70" height="70" fill="none"/></svg>