<!-- Generated by IcoMoon.io -->
<svg version="1.1" xmlns="http://www.w3.org/2000/svg" width="1024" height="1024" viewBox="0 0 1024 1024">
<title></title>
<g id="icomoon-ignore">
</g>
<path fill="#000" d="M512 0c-21.2 0-60.32 5.040-94.080 33.28-0.32 0.32-1.12 0.56-1.28 0.64-11.44 8.72-39.52 33.44-80 68.48h-152.32c-0.64 0-1.28 0-1.92 0-10.56 0.96-18.64 9.84-18.56 20.48v132.48c-83.12 73.52-156.8 138.88-156.8 138.88-4.48 3.84-7.040 9.44-7.040 15.36v593.92c0 11.28 9.2 20.48 20.48 20.48h983.040c11.28 0 20.48-9.2 20.48-20.48v-593.92c0-5.92-2.56-11.52-7.040-15.36 0 0-73.68-65.36-156.8-138.88v-132.48c0-11.28-9.2-20.48-20.48-20.48h-153.6c-38.88-35.12-67.28-59.76-78.72-68.48-0.16-0.080-0.96-0.32-1.28-0.64-33.76-28.24-72.88-33.28-94.080-33.28zM512 40.96c15.36 0 45.2 3.68 68.48 23.68 0.4 0.24 0.88 0.48 1.28 0.64 2.4 1.76 27.040 23.68 42.24 37.12h-224.64c15.28-13.28 40.48-35.36 42.88-37.12 0.4-0.16 0.88-0.4 1.28-0.64 23.28-20 53.12-23.68 68.48-23.68zM204.8 143.36h131.84c3.92 1.2 8.24 1.2 12.16 0h470.4v112.64c-1.52 4.32-1.52 9.12 0 13.44v279.68l-129.28 101.76c-28.32-22.24-75.68-58.96-81.92-64l-1.28-0.64c-35.44-28.32-73.28-33.28-94.72-33.28-22.96 0-59.2 7.040-94.080 32.64l-0.64 0.64c-7.040 5.2-56.8 44.080-83.2 64.64l-129.28-101.76v-281.6c0.56-2.72 0.56-5.6 0-8.32zM491.52 204.8v122.88h-122.88v40.96h122.88v122.88h40.96v-122.88h122.88v-40.96h-122.88v-122.88zM163.84 309.76v207.36l-122.88-96.64v-1.92c4.88-4.32 64.48-57.12 122.88-108.8zM860.16 309.76c58.4 51.68 118 104.48 122.88 108.8v1.92l-122.88 96.64zM40.96 472.96l259.84 204.16c-37.44 29.28-53.76 41.6-98.56 76.8-82 64.48-137.44 107.92-161.28 126.72zM983.040 472.96v408.32c-30.4-23.84-152.080-119.6-259.84-204.16zM512 593.92c15.36 0 43.12 3.52 69.12 24.32 31.68 25.36 391.6 306.8 401.92 314.88v49.92h-942.080v-49.92c5.36-4.24 91.12-71.84 186.24-146.56 98-77.040 202.080-158.16 215.040-167.68 26.56-19.44 55.84-24.96 69.76-24.96z"></path>
</svg>
