<svg xmlns="http://www.w3.org/2000/svg" viewBox="0 0 36.44 61.6"><title>smartphone</title><path d="M4.22,0A4.22,4.22,0,0,0,0,4.2v4a1.4,1.4,0,0,0,0,.46V51.56A1.4,1.4,0,0,0,0,52V57.4a4.22,4.22,0,0,0,4.2,4.2h28a4.22,4.22,0,0,0,4.2-4.2V52a1.4,1.4,0,0,0,0-.46V8.64a1.4,1.4,0,0,0,0-.46v-4A4.22,4.22,0,0,0,32.22,0Zm0,2.8h28a1.4,1.4,0,0,1,1.4,1.4V7H2.82V4.2A1.4,1.4,0,0,1,4.22,2.8Zm-1.4,7h30.8V50.4H2.82Zm0,43.4h30.8v4.2a1.4,1.4,0,0,1-1.4,1.4h-28a1.4,1.4,0,0,1-1.4-1.4ZM14,54.6a1.4,1.4,0,1,0,0,2.8h8.44a1.4,1.4,0,1,0,0-2.8H14Z"/></svg>