<?xml version="1.0" encoding="UTF-8"?>
<svg xmlns="http://www.w3.org/2000/svg" xmlns:xlink="http://www.w3.org/1999/xlink" viewBox="0 0 50 50" version="1.1" width="50px" height="50px">
<g id="surface1">
<path style=" " d="M 2.8125 3 C 1.277344 3 0 4.277344 0 5.8125 L 0 10.8125 C -0.00390625 10.855469 -0.00390625 10.894531 0 10.9375 L 0 46 C 0 46.550781 0.449219 47 1 47 L 49 47 C 49.550781 47 50 46.550781 50 46 L 50 11 C 50 10.96875 50 10.9375 50 10.90625 L 50 5.8125 C 50 4.277344 48.722656 3 47.1875 3 Z M 2.8125 5 L 47.1875 5 C 47.652344 5 48 5.347656 48 5.8125 L 48 10 L 2 10 L 2 5.8125 C 2 5.347656 2.347656 5 2.8125 5 Z M 2 12 L 48 12 L 48 45 L 2 45 Z M 25 15 C 17.832031 15 12 20.832031 12 28 C 12 35.167969 17.832031 41 25 41 C 32.167969 41 38 35.167969 38 28 C 38 20.832031 32.167969 15 25 15 Z M 25 17 C 27.679688 17 30.125 17.945313 32.03125 19.53125 L 16.53125 35.03125 C 14.945313 33.125 14 30.679688 14 28 C 14 21.914063 18.914063 17 25 17 Z M 33.46875 20.96875 C 35.054688 22.875 36 25.320313 36 28 C 36 34.085938 31.085938 39 25 39 C 22.320313 39 19.875 38.054688 17.96875 36.46875 Z "/>
</g>
</svg>
