<svg xmlns="http://www.w3.org/2000/svg" viewBox="0 0 70 70"><title>cards</title><path d="M8.4,7a5.62,5.62,0,0,0-5.6,5.6V43.4a5.58,5.58,0,0,0,4.59,5.47L9.23,59.24a5.61,5.61,0,0,0,6.48,4.55l46.86-8.36A5.61,5.61,0,0,0,67.11,49L61.73,18.64a1.29,1.29,0,0,0-.13-.39V12.6A5.62,5.62,0,0,0,56,7Zm0,2.8H56a2.78,2.78,0,0,1,2.8,2.8v4.2H5.6V12.6A2.78,2.78,0,0,1,8.4,9.8Zm-2.8,14H58.8V43.4A2.78,2.78,0,0,1,56,46.2H8.4a2.78,2.78,0,0,1-2.8-2.8Zm7,4.2v2.8H35V28Zm49,5.91,2.76,15.53a2.77,2.77,0,0,1-2.28,3.24L15.23,61A2.77,2.77,0,0,1,12,58.76L10.24,49H56a5.62,5.62,0,0,0,5.6-5.6Z"/><rect width="70" height="70" fill="none"/></svg>