<!-- Generated by IcoMoon.io -->
<svg version="1.1" xmlns="http://www.w3.org/2000/svg" width="1024" height="1024" viewBox="0 0 1024 1024">
<title></title>
<g id="icomoon-ignore">
</g>
<path fill="#000" d="M327.68 0c-180.224 0-327.68 147.456-327.68 327.68s147.456 327.68 327.68 327.68c14.336 0 28.672 0 45.056-2.048-2.048 14.336-4.096 28.672-4.096 43.008 0 180.224 147.456 327.68 327.68 327.68s327.68-147.456 327.68-327.68-147.456-327.68-327.68-327.68c-14.336 0-28.672 2.048-43.008 4.096 2.048-16.384 2.048-30.72 2.048-45.056 0-180.224-147.456-327.68-327.68-327.68zM825.344 6.144l-116.736 116.736 116.736 116.736 28.672-28.672-67.584-67.584h94.208c57.344 0 102.4 45.056 102.4 102.4v122.88h40.96v-122.88c0-77.824-65.536-143.36-143.36-143.36h-94.208l67.584-67.584-28.672-28.672zM327.68 40.96c159.744 0 286.72 126.976 286.72 286.72 0 18.432-2.048 36.864-6.144 53.248-110.592 30.72-198.656 118.784-229.376 229.376-14.336 2.048-32.768 4.096-51.2 4.096-159.744 0-286.72-126.976-286.72-286.72s126.976-286.72 286.72-286.72zM696.32 409.6c157.696 0 286.72 129.024 286.72 286.72s-129.024 286.72-286.72 286.72-286.72-129.024-286.72-286.72 129.024-286.72 286.72-286.72zM0 655.36v122.88c0 77.824 65.536 143.36 143.36 143.36h94.208l-67.584 67.584 28.672 28.672 116.736-116.736-116.736-116.736-28.672 28.672 67.584 67.584h-94.208c-57.344 0-102.4-45.056-102.4-102.4v-122.88h-40.96zM819.2 716.8c32.768-6.144 51.2-32.768 51.2-65.536 0-55.296-45.056-61.44-88.064-61.44h-92.16l-36.864 174.080h-67.584l49.152-235.52h-34.816l-57.344 266.24h102.4l-12.288 61.44h106.496c32.768 0 67.584 2.048 94.208-24.576 16.384-16.384 24.576-38.912 24.576-61.44 0-24.576-14.336-45.056-38.912-53.248zM716.8 620.544h59.392c24.576 0 59.392 0 59.392 34.816s-26.624 49.152-57.344 49.152h-77.824l16.384-83.968zM784.384 825.344c-12.288 2.048-26.624 4.096-47.104 4.096h-65.536l20.48-96.256h79.872c26.624 0 51.2 8.192 51.2 40.96 0 24.576-16.384 45.056-38.912 51.2zM276.48 458.752l26.624-102.4h86.016v-20.48h-81.92l10.24-40.96h71.68v-20.48h-67.584l26.624-102.4h-40.96l-26.624 102.4h-55.296v20.48h51.2l-10.24 40.96h-40.96v20.48h36.864l-36.864 143.36h235.52l10.24-40.96h-194.56z"></path>
</svg>
