<svg xmlns="http://www.w3.org/2000/svg" viewBox="0 0 50 50"><title>story-list</title><path d="M11.18,49.34V.66H49.34V43.42a5.9,5.9,0,0,1-5.92,5.92Z" fill="#fff"/><path d="M48.68,1.32V43.42a5.28,5.28,0,0,1-5.26,5.26H11.84V1.32H48.68M50,0H10.53V50H43.42A6.52,6.52,0,0,0,50,43.42V0Z" fill="#9e9e9e"/><path d="M6.58,49.34A5.9,5.9,0,0,1,.66,43.42V38.82H37.5v4.61a6.08,6.08,0,0,0,5.26,5.92H6.58Z" fill="#e0e0e0"/><path d="M36.84,39.47v3.95a6.67,6.67,0,0,0,2.63,5.26H6.58a5.28,5.28,0,0,1-5.26-5.26V39.47H36.84m1.32-1.32H0v5.26A6.52,6.52,0,0,0,6.58,50H43.42V48.68a5.28,5.28,0,0,1-5.26-5.26V38.16Z" fill="#9e9e9e"/><rect x="25" y="10.53" width="17.11" height="1.32" fill="#9e9e9e"/><rect x="18.42" y="10.53" width="2.63" height="1.32" fill="#9e9e9e"/><rect x="25" y="17.11" width="17.11" height="1.32" fill="#9e9e9e"/><rect x="18.42" y="17.11" width="2.63" height="1.32" fill="#9e9e9e"/><rect x="25" y="23.68" width="17.11" height="1.32" fill="#9e9e9e"/><rect x="18.42" y="23.68" width="2.63" height="1.32" fill="#9e9e9e"/><rect x="25" y="30.26" width="17.11" height="1.32" fill="#9e9e9e"/><rect x="18.42" y="30.26" width="2.63" height="1.32" fill="#9e9e9e"/></svg>