<svg xmlns="http://www.w3.org/2000/svg" viewBox="0 0 70 70"><title>e-money</title><path d="M33.16,2.84a4.17,4.17,0,0,0-2.58.88,9.57,9.57,0,0,0-2.06,2.19,2.68,2.68,0,0,1-1.84,1.18,18.07,18.07,0,0,1-3.46.17,10.48,10.48,0,0,0-3.63.48A3.34,3.34,0,0,0,17.8,9.23a1.23,1.23,0,0,0,0,.13.65.65,0,0,0,0,.09l0,.09a1.82,1.82,0,0,0-.09.22,3,3,0,0,0,.48,2.36,8,8,0,0,0,1.4,1.62,17.71,17.71,0,0,1,3,3.54,12.23,12.23,0,0,1,1.79,6.82c-4.64,1.42-9.07,4.79-12.47,9.1C8.12,37.88,5.6,43.59,5.6,49.13c0,6.84,2.14,11.71,7,14.48s12,3.59,22.4,3.59,17.54-.82,22.4-3.59,7-7.64,7-14.48c0-10.59-8.3-20.28-17.85-24.5a13.09,13.09,0,0,1,2.1-.13,9.63,9.63,0,0,1,7,3.06,1.4,1.4,0,1,0,2-1.93,12.45,12.45,0,0,0-8.36-3.89,8.73,8.73,0,0,1,8.09.48,1.4,1.4,0,1,0,1.31-2.45,11.61,11.61,0,0,0-5.6-1.53c-4,0-7.3,2.09-9.49,3.59a15.61,15.61,0,0,1,2.93-9.62l0,0,0-.09a10.9,10.9,0,0,0,1.58-3.15,2.62,2.62,0,0,0-.31-2.28A2.91,2.91,0,0,0,45.5,5.6a22.79,22.79,0,0,0-4.59.83c-1.26.24-1.9.2-2.54-.44V6s0,0,0,0C36.5,4.15,35,2.9,33.16,2.84Zm-.09,2.8c.51,0,1.61.59,3.28,2.32h0V8a5.43,5.43,0,0,0,5,1.14c1.19-.22,2.31-.51,3.24-.66,0,.1,0,.11-.09.31a4.69,4.69,0,0,1-.87.92c-.92.78-2.45,1.77-4.07,3.24A4.13,4.13,0,0,1,37.58,14a1.3,1.3,0,0,1-1.36-.52h0a8.36,8.36,0,0,0-2.1-2,3.78,3.78,0,0,0-2.49-.57c-1.64.26-2.67,1.43-3.94,2.63h0v0a2.4,2.4,0,0,1-2.89.35A9.56,9.56,0,0,1,21,10.33a8.43,8.43,0,0,1,2.27-.26A18.5,18.5,0,0,0,27.3,9.8a5.79,5.79,0,0,0,3.5-2.28h0A7.21,7.21,0,0,1,32.24,6,1.18,1.18,0,0,1,33.07,5.64ZM32,13.74a.7.7,0,0,1,.61.13,6.09,6.09,0,0,1,1.4,1.4v0h0a4.31,4.31,0,0,0,3.85,1.49,6.66,6.66,0,0,0,3.63-1.75c.15-.14.29-.22.44-.35a15.9,15.9,0,0,0-1.09,8.79,15.86,15.86,0,0,1-13.65.57,14.67,14.67,0,0,0-1.79-7.22,5.13,5.13,0,0,0,4.07-1.27A7.75,7.75,0,0,1,32,13.74ZM42.35,25.9C52,28.73,61.6,39,61.6,49.13c0,6.32-1.56,9.8-5.56,12.07S45.21,64.4,35,64.4s-17-.92-21-3.19S8.4,55.45,8.4,49.13c0-4.68,2.22-9.94,5.6-14.22s7.78-7.45,11.9-8.44A19.19,19.19,0,0,0,42.35,25.9Zm-7.1,10.48a11.64,11.64,0,0,1,5.31,1.17,8.73,8.73,0,0,1,3.63,3.32,9.33,9.33,0,0,1,1.3,4.93,7.79,7.79,0,0,1-1.34,4.79,4.31,4.31,0,0,1-3.64,1.78,3.64,3.64,0,0,1-2-.54,2.27,2.27,0,0,1-1-1.45h-.18a3,3,0,0,1-3.05,2A3.93,3.93,0,0,1,31,50.85,5.94,5.94,0,0,1,29.81,47,5.71,5.71,0,0,1,31,43.22a3.81,3.81,0,0,1,3.09-1.44,3.5,3.5,0,0,1,1.83.48,2.85,2.85,0,0,1,1.17,1.32h.18V42.06h2.57v6.78a1.62,1.62,0,0,0,.31,1.05,1.09,1.09,0,0,0,.89.38,1.73,1.73,0,0,0,1.53-1.15A7.08,7.08,0,0,0,43.15,46,7.25,7.25,0,0,0,41,40.47a8.09,8.09,0,0,0-5.8-2.07,8,8,0,0,0-6,2.4A8.58,8.58,0,0,0,26.85,47a8.1,8.1,0,0,0,2.4,6.2,9,9,0,0,0,6.38,2.26A10.48,10.48,0,0,0,39.1,55v2A14,14,0,0,1,31,56.79a10,10,0,0,1-3.46-2.08,9.25,9.25,0,0,1-2.25-3.34A11.66,11.66,0,0,1,24.52,47a11,11,0,0,1,1.36-5.52,9.45,9.45,0,0,1,3.8-3.73A11.5,11.5,0,0,1,35.25,36.38Zm-.42,7.71a1.84,1.84,0,0,0-1.57.78,4.44,4.44,0,0,0,0,4.34,1.82,1.82,0,0,0,1.57.79,1.92,1.92,0,0,0,1.62-.79,4.23,4.23,0,0,0,0-4.32A1.91,1.91,0,0,0,34.83,44.09Z"/><rect width="70" height="70" fill="none"/></svg>