<svg xmlns="http://www.w3.org/2000/svg" viewBox="0 0 50 50"><title>offer</title><path d="M25,49.34a.9.9,0,0,1-.58-.21l-4.5-3.71-5.7,1.18-.19,0a.92.92,0,0,1-.84-.57l-2.27-5.39L5.33,39a.93.93,0,0,1-.66-1l.47-5.84L.94,28.19A.93.93,0,0,1,.8,27l3.11-4.95L2.07,16.53a.93.93,0,0,1,.41-1.09l5-2.93.93-5.78a.92.92,0,0,1,.87-.78l5.81-.23L18.61,1a.93.93,0,0,1,.74-.37.91.91,0,0,1,.39.09L25,3.27,30.25.75a.88.88,0,0,1,.39-.09.93.93,0,0,1,.74.37l3.49,4.69,5.81.23a.93.93,0,0,1,.87.78l.93,5.78,5,2.92a.93.93,0,0,1,.41,1.1l-1.85,5.55L49.2,27a.93.93,0,0,1-.14,1.16l-4.2,4.05.47,5.84a.93.93,0,0,1-.66,1l-5.59,1.62-2.27,5.39a.91.91,0,0,1-.84.57l-.18,0-5.71-1.18-4.5,3.71A.91.91,0,0,1,25,49.34Z" fill="#e0e0e0"/><path d="M30.64,1.32a.26.26,0,0,1,.21.1l3.3,4.43.37.5.62,0,5.5.22a.27.27,0,0,1,.25.22l.88,5.47.1.62.54.32L47.19,16a.27.27,0,0,1,.12.31l-1.75,5.25-.2.6.34.53,2.94,4.68a.27.27,0,0,1,0,.33l-4,3.83-.45.44.05.63.45,5.52a.26.26,0,0,1-.19.27L39.2,39.94l-.6.17-.24.58-2.15,5.1a.27.27,0,0,1-.27.16h0l-5.39-1.11-.61-.13-.48.4-4.26,3.51a.26.26,0,0,1-.33,0l-4.26-3.51-.48-.4-.61.13L14,46a.26.26,0,0,1-.23-.16l-2.15-5.1-.24-.58-.6-.17L5.51,38.4a.27.27,0,0,1-.19-.28l.45-5.52L5.82,32l-.46-.43-4-3.84a.26.26,0,0,1,0-.33L4.3,22.7l.34-.53-.2-.6L2.69,16.32A.26.26,0,0,1,2.81,16l4.77-2.77.54-.32.1-.62L9.1,6.83a.26.26,0,0,1,.25-.22l5.5-.22.62,0,.37-.5,3.3-4.43a.27.27,0,0,1,.21-.11l.11,0,5,2.38L25,4l.57-.27,5-2.38.11,0m0-1.32A1.54,1.54,0,0,0,30,.15L25,2.54,20,.15A1.55,1.55,0,0,0,19.35,0a1.58,1.58,0,0,0-1.26.63l-3.3,4.43-5.5.22A1.58,1.58,0,0,0,7.8,6.62l-.88,5.47L2.15,14.86a1.59,1.59,0,0,0-.71,1.88L3.19,22,.24,26.67a1.59,1.59,0,0,0,.24,2l4,3.83L4,38a1.59,1.59,0,0,0,1.13,1.65l5.29,1.53,2.15,5.1a1.56,1.56,0,0,0,1.77.94l5.4-1.11L24,49.64a1.57,1.57,0,0,0,2,0l4.26-3.51,5.39,1.11a1.56,1.56,0,0,0,1.77-.94l2.15-5.1,5.29-1.53A1.59,1.59,0,0,0,46,38l-.45-5.52,4-3.83a1.6,1.6,0,0,0,.24-2L46.81,22l1.75-5.25a1.6,1.6,0,0,0-.71-1.88l-4.77-2.77L42.2,6.62a1.59,1.59,0,0,0-1.5-1.33l-5.5-.22L31.91.63A1.58,1.58,0,0,0,30.64,0Z" fill="#9e9e9e"/><path d="M22.2,15a6.2,6.2,0,0,1,1.32,4.15,6.2,6.2,0,0,1-1.32,4.15,4.35,4.35,0,0,1-3.5,1.56,4.35,4.35,0,0,1-3.5-1.56,6.2,6.2,0,0,1-1.32-4.15A6.2,6.2,0,0,1,15.2,15a4.35,4.35,0,0,1,3.5-1.56A4.35,4.35,0,0,1,22.2,15ZM18,36.69H15.24l8.85-12.09L32,13.76h2.73L26.14,25.55ZM17,21.93a1.87,1.87,0,0,0,3.32,0A5.31,5.31,0,0,0,21,19.18a5.31,5.31,0,0,0-.61-2.76,1.87,1.87,0,0,0-3.32,0,5.31,5.31,0,0,0-.61,2.76A5.31,5.31,0,0,0,17,21.93ZM34.8,27.07a6.2,6.2,0,0,1,1.32,4.15,6.2,6.2,0,0,1-1.32,4.15,4.35,4.35,0,0,1-3.5,1.56,4.35,4.35,0,0,1-3.5-1.56,6.2,6.2,0,0,1-1.32-4.15,6.2,6.2,0,0,1,1.32-4.15,4.35,4.35,0,0,1,3.5-1.56A4.35,4.35,0,0,1,34.8,27.07ZM29.64,34A1.87,1.87,0,0,0,33,34a5.31,5.31,0,0,0,.61-2.76A5.31,5.31,0,0,0,33,28.46a1.87,1.87,0,0,0-3.32,0A5.31,5.31,0,0,0,29,31.22,5.31,5.31,0,0,0,29.64,34Z" fill="#fff"/></svg>