<svg xmlns="http://www.w3.org/2000/svg" viewBox="0 0 70 70"><title>terminal</title><path d="M47.8,2.84,47,4,34.6,21.91,23.68,25.15l0,0h0a7,7,0,0,0-3.28,2.58l0,0v0L10.84,42.43l-.35-1.14L1.31,44,0,44.49.39,45.8,6.68,66.93l.39,1.36,1.35-.39,7.82-2.41,1.35-.39-.44-1.31-.79-2.67,11-2.45A15,15,0,0,0,36,53.28l.52-.66,5.29,3.72,1.14.83L43.69,56,69,19.33l.79-1.14-1.18-.83L48.93,3.67Zm.7,3.89L65.93,18.89l-10,14.48c1.28-4.1-.68-9-4.85-11.9,0,0,0,0,0,0s0,0,0,0a12,12,0,0,0-8-2.19,9.4,9.4,0,0,0-4.15,1.4ZM54.35,15A2.38,2.38,0,0,0,53,19.37a2.39,2.39,0,0,0,3.32-.61,2.35,2.35,0,0,0-.61-3.28A2.49,2.49,0,0,0,54.35,15ZM43.43,22a9,9,0,0,1,6,1.71l0,0c4,2.73,5.14,7.36,3.15,10.24h0a5.72,5.72,0,0,1-4.76,2.49,5.6,5.6,0,0,0-1.75-4.37s0,0,0,0a5.66,5.66,0,0,0-7.08-.74c-1.33-2.4-1.43-5-.13-6.87A6.21,6.21,0,0,1,43.43,22ZM32.11,25.59,25.43,36.13l-.74,1.23,1.22.7,4.46,2.67.83.52.79-.66,7.08-5.73a1.42,1.42,0,0,0,.83-.7l.35-.26a2.89,2.89,0,0,1,3.84.18v0h0a2.87,2.87,0,0,1,.26,4L33.77,51.53a12.35,12.35,0,0,1-7,4.42L15.6,58.44,11.67,45.23l.44-.18.48-.17.26-.39,9.74-15a4.13,4.13,0,0,1,1.92-1.57l.09,0Zm3.19.18a10.18,10.18,0,0,0,1.4,7.39L31,37.84l-2.4-1.44ZM53.13,37.44,42.21,53.28l-4-2.84,8.39-10.59v0h0a5.47,5.47,0,0,0,.35-.52A9.52,9.52,0,0,0,53.13,37.44ZM8.61,44.75l5.51,18.51L9,64.83,3.45,46.37Z"/><rect x="0.09" width="69.91" height="70" fill="none"/></svg>