<svg xmlns="http://www.w3.org/2000/svg" viewBox="0 0 40 40"><defs><style>.flash_black_16-3{fill-opacity:0.16;}.a{fill:none;}.flash_black_54{fill-opacity:0.54;}</style></defs><title>gag__community_avatar_40</title><rect class="flash_black_16-3" width="40" height="40"/><rect class="a" x="10" y="10" width="20" height="20"/><path class="flash_black_54" d="M23.333,19.167a2.5,2.5,0,1,0-2.5-2.5A2.493,2.493,0,0,0,23.333,19.167Zm-6.667,0a2.5,2.5,0,1,0-2.5-2.5A2.493,2.493,0,0,0,16.667,19.167Zm0,1.667c-1.945,0-5.833.973-5.833,2.917v2.083H22.5V23.75C22.5,21.807,18.611,20.833,16.667,20.833Zm6.667,0a7.918,7.918,0,0,0-.8.045,3.5,3.5,0,0,1,1.638,2.871v2.083h5V23.75C29.167,21.807,25.278,20.833,23.333,20.833Z"/></svg>