<svg xmlns="http://www.w3.org/2000/svg" viewBox="0 0 260 380"><defs><style>.a{fill-opacity:0.16;}.flash_black_54-10{fill-opacity:0.54;}.b{fill:none;}</style></defs><title>gag__event-poster</title><rect class="a" width="260" height="380"/><path class="flash_black_54-10" d="M182,238a8.058,8.058,0,0,1-8,8H86a8.058,8.058,0,0,1-8-8V158a8.058,8.058,0,0,1,8-8h8v-6a10.032,10.032,0,0,1,10-10H108a10.032,10.032,0,0,1,10,10v6h24v-6a10.032,10.032,0,0,1,10-10H156a10.032,10.032,0,0,1,10,10v6h8a8.058,8.058,0,0,1,8,8Zm-78-46V174H86v18Zm0,24V196H86v20Zm0,22V220H86v18Zm6-94a2.059,2.059,0,0,0-2-2H104a2.059,2.059,0,0,0-2,2v18a2.059,2.059,0,0,0,2,2H108a2.059,2.059,0,0,0,2-2Zm18,48V174H108v18Zm0,24V196H108v20Zm0,22V220H108v18Zm24-46V174H132v18Zm0,24V196H132v20Zm0,22V220H132v18Zm6-94a2.059,2.059,0,0,0-2-2H152a2.059,2.059,0,0,0-2,2v18a2.059,2.059,0,0,0,2,2H156a2.059,2.059,0,0,0,2-2Zm16,48V174H156v18Zm0,24V196H156v20Zm0,22V220H156v18Z"/><rect class="b" x="60" y="120" width="140" height="140"/></svg>