<svg xmlns="http://www.w3.org/2000/svg" viewBox="0 0 40 40"><defs><style>.flash_black_16-3{fill-opacity:0.16;}.flash_black_54{fill-opacity:0.54;}</style></defs><title>gag__event</title><rect class="flash_black_16-3" width="40" height="40"/><path class="flash_black_54" d="M27.429,26.857A1.151,1.151,0,0,1,26.286,28H13.714a1.151,1.151,0,0,1-1.143-1.143V15.429a1.151,1.151,0,0,1,1.143-1.143h1.143v-.857A1.433,1.433,0,0,1,16.286,12h.57a1.433,1.433,0,0,1,1.429,1.429v.857h3.429v-.857A1.433,1.433,0,0,1,23.144,12h.57a1.433,1.433,0,0,1,1.429,1.429v.857h1.143a1.151,1.151,0,0,1,1.143,1.143ZM16.286,20.286V17.714H13.714v2.571Zm0,3.429V20.857H13.714v2.857Zm0,3.143V24.286H13.714v2.571Zm.856-13.429a.294.294,0,0,0-.286-.286h-.57a.294.294,0,0,0-.286.286V16a.294.294,0,0,0,.286.286h.57A.294.294,0,0,0,17.143,16Zm2.572,6.857V17.714H16.856v2.571Zm0,3.429V20.857H16.856v2.857Zm0,3.143V24.286H16.856v2.571Zm3.429-6.571V17.714H20.285v2.571Zm0,3.429V20.857H20.285v2.857Zm0,3.143V24.286H20.285v2.571ZM24,13.429a.294.294,0,0,0-.286-.286h-.57a.294.294,0,0,0-.286.286V16a.294.294,0,0,0,.286.286h.57A.294.294,0,0,0,24,16Zm2.286,6.857V17.714H23.714v2.571Zm0,3.429V20.857H23.714v2.857Zm0,3.143V24.286H23.714v2.571Z"/></svg>