<svg xmlns="http://www.w3.org/2000/svg" viewBox="0 0 26.063 16.078"><defs><style>.cls-1{fill:#fff;}</style></defs><title>logo 1</title><g id="Слой_2" data-name="Слой 2"><g id="Сообщения_2_" data-name="Сообщения (2)"><g id="e_topline_LO"><path class="cls-1" d="M25.433,5.114a8.165,8.165,0,0,0-1.789-2.59,8.867,8.867,0,0,0-2.8-1.831A9.235,9.235,0,0,0,17.219,0a9.5,9.5,0,0,0-3.578.659,9.17,9.17,0,0,0-2.835,1.764A8,8,0,0,0,8.942,4.98a7.133,7.133,0,0,0-.668,3.015,7.221,7.221,0,0,0,.3,2.065h4.3c-.033-.081-.065-.162-.095-.245a5.312,5.312,0,0,1-.3-1.775,5.452,5.452,0,0,1,.29-1.753,4.412,4.412,0,0,1,.882-1.53,4.5,4.5,0,0,1,1.461-1.083,4.742,4.742,0,0,1,2.054-.413,4.847,4.847,0,0,1,2,.391A4.455,4.455,0,0,1,20.646,4.7a4.363,4.363,0,0,1,.907,1.518,5.315,5.315,0,0,1,.3,1.775,5.458,5.458,0,0,1-.29,1.753,4.648,4.648,0,0,1-.869,1.541,4.379,4.379,0,0,1-1.461,1.105,4.717,4.717,0,0,1-2.066.424H4.137V1.059H0V16.078H17.143a9.363,9.363,0,0,0,3.578-.67,9.187,9.187,0,0,0,2.822-1.775A8.1,8.1,0,0,0,25.4,11.076a7.139,7.139,0,0,0,.668-3.015A7.348,7.348,0,0,0,25.433,5.114Z"/></g></g></g></svg>