<svg xmlns="http://www.w3.org/2000/svg" viewBox="0 0 133 25" height="25px" width="133px">
<defs>
<style>.cls-1{fill:#fff;}</style>
</defs>
<title>LO_logo</title>

<path class="cls-1" d="M0,0V25H60.87V0ZM17.67,20.65h-13V4.51H8.9V17.38h8.78Zm5.87,0H19.46V16.88h4.08Zm0-6.41H19.46V4.35h4.08Zm12,6.41H32L25,4.51h4.44L33.75,16,38,4.51h4.42Zm20.65,0H43.42V4.51H55.93V7.78H47.61v3.14h7.15v3H47.61v3.43h8.55Z"/>
<path class="cls-1" d="M74.19,20.65a9.32,9.32,0,0,1-3.67-.7,9.06,9.06,0,0,1-2.83-1.85,8.31,8.31,0,0,1-1.82-2.62,7.44,7.44,0,0,1-.65-3,7.25,7.25,0,0,1,.68-3.06A8.11,8.11,0,0,1,67.78,6.8,9.27,9.27,0,0,1,70.65,5a9.6,9.6,0,0,1,3.62-.67,9.33,9.33,0,0,1,3.67.7,9,9,0,0,1,2.83,1.86,8.28,8.28,0,0,1,1.81,2.63,7.47,7.47,0,0,1,.64,3,7.25,7.25,0,0,1-.68,3.06,8.21,8.21,0,0,1-1.87,2.59A9.29,9.29,0,0,1,77.81,20,9.45,9.45,0,0,1,74.19,20.65ZM69.47,12.5a5.4,5.4,0,0,0,.31,1.8,4.65,4.65,0,0,0,.9,1.55,4.38,4.38,0,0,0,1.49,1.09,4.86,4.86,0,0,0,2,.41,4.76,4.76,0,0,0,2.09-.43,4.43,4.43,0,0,0,1.48-1.12,4.72,4.72,0,0,0,.88-1.56A5.55,5.55,0,0,0,79,12.45a5.4,5.4,0,0,0-.31-1.8,4.43,4.43,0,0,0-.92-1.54,4.51,4.51,0,0,0-1.49-1.06,4.89,4.89,0,0,0-2-.4,4.79,4.79,0,0,0-2.08.42,4.56,4.56,0,0,0-1.48,1.1,4.48,4.48,0,0,0-.89,1.55A5.54,5.54,0,0,0,69.47,12.5Z"/>
<path class="cls-1" d="M89.18,11.32v9.19H85V4.44h3.26l8.44,9.44V4.44h4.18V20.52H97.52Z"/>
<path class="cls-1" d="M102.67,12.34a7.32,7.32,0,0,1,.61-2.89,7.79,7.79,0,0,1,1.78-2.57A9.11,9.11,0,0,1,107.92,5a9.86,9.86,0,0,1,3.82-.7,9.47,9.47,0,0,1,4.42,1A6.72,6.72,0,0,1,119,7.86l-3.21,2A3.32,3.32,0,0,0,115,8.8a4.25,4.25,0,0,0-1-.68,4.59,4.59,0,0,0-1.15-.36,6.69,6.69,0,0,0-1.15-.1,4.77,4.77,0,0,0-2.09.43,4.5,4.5,0,0,0-1.48,1.11,4.43,4.43,0,0,0-.87,1.54,5.59,5.59,0,0,0-.28,1.74,5.18,5.18,0,0,0,.33,1.83,4.74,4.74,0,0,0,1,1.56,4.56,4.56,0,0,0,1.5,1.08,4.75,4.75,0,0,0,2,.4,5.69,5.69,0,0,0,1.16-.12,5,5,0,0,0,1.15-.38,4.08,4.08,0,0,0,1-.68,3.16,3.16,0,0,0,.74-1l3.42,1.79a4.74,4.74,0,0,1-1.21,1.59,7.51,7.51,0,0,1-1.85,1.18,10.72,10.72,0,0,1-2.22.72,11,11,0,0,1-2.29.25,9,9,0,0,1-3.61-.71A9.11,9.11,0,0,1,105.15,18a8.54,8.54,0,0,1-1.84-2.67A7.54,7.54,0,0,1,102.67,12.34Z"/>
<path class="cls-1" d="M133.33,17.26v3.26H120.61V4.44H133.1V7.7h-8.31v3.12h7.14v3h-7.14v3.42Z"/>

</svg>