<?xml version="1.0" encoding="utf-8"?>
<!-- Generator: Adobe Illustrator 21.0.2, SVG Export Plug-In . SVG Version: 6.00 Build 0)  -->
<svg version="1.1"
	 id="svg2" xmlns:cc="http://creativecommons.org/ns#" xmlns:dc="http://purl.org/dc/elements/1.1/" xmlns:rdf="http://www.w3.org/1999/02/22-rdf-syntax-ns#" xmlns:svg="http://www.w3.org/2000/svg"
	 xmlns="http://www.w3.org/2000/svg" xmlns:xlink="http://www.w3.org/1999/xlink" x="0px" y="0px" viewBox="0 0 300 299"
	 style="enable-background:new 0 0 300 299;" xml:space="preserve">
<style type="text/css">
	.st0{fill:#F57D14;}
</style>
<g id="g10" transform="matrix(1.3333333,0,0,-1.3333333,0,354.36)">
	<g id="g12" transform="scale(0.1)">
		<path id="path14" class="st0" d="M1529,717.1c185.4,0,386.5-63.6,609.1-260.8c22.3-19.8,52,4.8,32.5,29.3
			c-218.8,276.2-421.1,328.8-622.9,373.3c-246.8,54.4-373.8,193.3-462.3,345.8c-17.6,30.3-25.5,25-27.1-14
			c-1.9-47.7,1.3-110.8,12-172.9l0,0c-9.9-0.5-20-0.3-30-0.3c-353.1,0-639.4,286.3-639.4,639.4s286.3,639.4,639.4,639.4
			c353.1,0,639.4-286.3,639.4-639.4c0-25.1-1.2-50-4-74.3c-46.7,8.4-138.6,9.4-203.1,3.8c-24.3-2.1-20.8-13.4-2.5-16.7
			c211.4-38.2,356.6-169.2,389.8-406.9c0.8-5.5,7.9-7.1,10.8-2.4c87,145.1,136.9,315,136.9,496.5c0,534.2-433,967.3-967.2,967.3
			c-534.2,0-967.2-433.1-967.2-967.3s433-967.3,967.2-967.3C1182,689.6,1322.6,717.1,1529,717.1L1529,717.1z M1601,1068.3
			c43-36.4,56.1-79.6,33.3-110.1c-12.7-16.7-33.2-26-57.8-26c-24.1,0-48.7,8.9-65.8,23.9c-39.1,34.2-50.6,89.6-25.1,121.1
			c10,12.3,26.2,19.1,45.6,19.1C1554.9,1096.3,1579.7,1086.3,1601,1068.3z M1799.5,1160.7c6.3-42.4-7.1-59.9-20.5-59.9
			c-14.7,0-33.1,17.2-54.8,51.1c-21.4,33.5-29.3,71.9-18.7,91.3c7,12.8,21.7,18.4,40.3,11.4C1781.7,1241,1795.7,1186,1799.5,1160.7"
			/>
	</g>
</g>
</svg>
