<?xml version="1.0" encoding="utf-8"?>
<!-- Generator: Adobe Illustrator 21.0.2, SVG Export Plug-In . SVG Version: 6.00 Build 0)  -->
<svg version="1.2" baseProfile="tiny" id="Layer_1" xmlns="http://www.w3.org/2000/svg" xmlns:xlink="http://www.w3.org/1999/xlink"
	 x="0px" y="0px" viewBox="0 0 300 300" xml:space="preserve">
<path id="Combined-Shape" fill="#036CB5" d="M149.3101,7.2057c22.6248,0,44.1507,5.1835,63.4671,14.4557
	c3.0294,1.3667,6.0786,3.0025,9.098,4.6398l-13.2449,11.7323l-19.856-20.4594l-34.2142,30.0036l-20.1478-21.5529L71.4975,81.9477
	l40.28,43.9184l-15.7249,13.6357l39.7405,43.9184l-15.7263,13.6302l56.8462,62.4686l33.6448-30.5531l29.2628,32.7426
	c-5.7996,4.365-12.1459,8.7384-19.0359,12.551c-20.9749,11.7282-45.2611,18.5347-71.1957,18.5347
	c-79.7528,0-144.5882-64.0903-144.5882-142.9169C4.7191,71.5834,69.5658,7.2057,149.3101,7.2057z M122.8159,141.142l34.4932-30.5531
	l30.9115,34.0966l-34.5003,30.5504L122.8159,141.142z M147.3811,200.0643l34.2127-30.8236l31.1834,34.0938l-34.4946,30.5545
	L147.3811,200.0643z M98.272,83.0425l34.4834-30.5531l30.9042,34.0966l-34.4945,30.5517L98.272,83.0425z M161.4488,66.6704
	l25.6642-22.9123l23.1842,25.3695l-25.6642,23.1829L161.4488,66.6704z M207.2594,171.6908l25.6556-22.9138l23.183,25.6345
	l-25.6656,22.928L207.2594,171.6908z M229.8828,223.2515l25.6656-22.9181l23.1644,25.3682l-25.6556,23.18L229.8828,223.2515z
	 M240.3704,105.4053L257.476,90.128l15.4471,16.9187l-17.1027,15.2716L240.3704,105.4053z M218.295,54.9409l17.1071-15.5449
	l15.4586,17.1821l-17.1199,15.2758L218.295,54.9409z M262.1667,155.874l17.1057-15.2758L295,157.5112l-17.3776,15.2716
	L262.1667,155.874z M185.1826,117.9563l25.6656-22.9138l23.1729,25.3638l-25.6542,22.9181L185.1826,117.9563z"/>
</svg>
